<svg width="5" height="22" viewBox="0 0 5 22" fill="none" xmlns="http://www.w3.org/2000/svg">
<path d="M2.44445 4.88889C2.92791 4.88889 3.40052 4.74553 3.80251 4.47693C4.20449 4.20833 4.5178 3.82656 4.70282 3.37989C4.88783 2.93323 4.93624 2.44173 4.84192 1.96756C4.7476 1.49338 4.51479 1.05782 4.17293 0.715962C3.83107 0.3741 3.39551 0.14129 2.92133 0.0469704C2.44716 -0.047349 1.95566 0.00105913 1.509 0.186073C1.06233 0.371088 0.680564 0.684398 0.411965 1.08638C0.143366 1.48837 1.32034e-06 1.96098 1.32034e-06 2.44445C1.32034e-06 3.09275 0.257541 3.71451 0.715963 4.17293C1.17439 4.63135 1.79614 4.88889 2.44445 4.88889ZM2.44445 17.1111C1.96098 17.1111 1.48837 17.2545 1.08639 17.5231C0.684399 17.7917 0.371088 18.1734 0.186073 18.6201C0.00105913 19.0668 -0.047349 19.5583 0.0469704 20.0324C0.14129 20.5066 0.374101 20.9422 0.715963 21.284C1.05782 21.6259 1.49338 21.8587 1.96756 21.953C2.44173 22.0473 2.93323 21.9989 3.37989 21.8139C3.82656 21.6289 4.20833 21.3156 4.47693 20.9136C4.74553 20.5116 4.88889 20.039 4.88889 19.5556C4.88889 18.9072 4.63135 18.2855 4.17293 17.8271C3.71451 17.3687 3.09275 17.1111 2.44445 17.1111ZM2.44445 8.55556C1.96098 8.55556 1.48837 8.69892 1.08639 8.96752C0.684399 9.23612 0.371088 9.61789 0.186073 10.0646C0.00105913 10.5112 -0.047349 11.0027 0.0469704 11.4769C0.14129 11.9511 0.374101 12.3866 0.715963 12.7285C1.05782 13.0703 1.49338 13.3032 1.96756 13.3975C2.44173 13.4918 2.93323 13.4434 3.37989 13.2584C3.82656 13.0734 4.20833 12.76 4.47693 12.3581C4.74553 11.9561 4.88889 11.4835 4.88889 11C4.88889 10.3517 4.63135 9.72994 4.17293 9.27152C3.71451 8.8131 3.09275 8.55556 2.44445 8.55556Z" fill="#AB1BC3"/>
</svg>
