<svg width="22" height="22" viewBox="0 0 22 22" fill="none" xmlns="http://www.w3.org/2000/svg">
<path d="M2.5933 15.1146C4.11693 16.6404 6.14593 17.5563 8.29805 17.6899C10.4502 17.8235 12.5769 17.1654 14.2774 15.8397L20.1289 21.6911C20.3364 21.8916 20.6143 22.0025 20.9028 22C21.1913 21.9975 21.4673 21.8817 21.6713 21.6777C21.8753 21.4737 21.991 21.1978 21.9935 20.9093C21.996 20.6208 21.8851 20.3428 21.6847 20.1353L15.8333 14.2839C17.2178 12.5071 17.8724 10.269 17.6635 8.02619C17.4546 5.78336 16.3981 3.70466 14.7093 2.21405C13.0205 0.723431 10.8267 -0.0668296 8.57529 0.00443236C6.32388 0.0756943 4.18444 1.00311 2.5933 2.59754C1.77115 3.41928 1.11896 4.39494 0.673994 5.46881C0.229026 6.54267 0 7.69368 0 8.85608C0 10.0185 0.229026 11.1695 0.673994 12.2434C1.11896 13.3172 1.77115 14.2929 2.5933 15.1146ZM4.14913 4.15558C5.23687 3.06787 6.66809 2.39095 8.19895 2.24016C9.72981 2.08937 11.2656 2.47403 12.5446 3.32861C13.8237 4.18319 14.7669 5.45481 15.2135 6.92682C15.6601 8.39883 15.5825 9.98015 14.9939 11.4014C14.4053 12.8226 13.3422 13.9958 11.9856 14.721C10.6291 15.4463 9.06301 15.6787 7.55427 15.3788C6.04553 15.0789 4.68745 14.2651 3.71143 13.0761C2.73541 11.8871 2.20183 10.3965 2.20159 8.85828C2.19858 7.98417 2.36918 7.11816 2.7035 6.3105C3.03782 5.50285 3.5292 4.76962 4.14913 4.15338V4.15558Z" fill="#AB1BC3"/>
</svg>
