<svg width="24" height="24" viewBox="0 0 24 24" fill="none" xmlns="http://www.w3.org/2000/svg">
<path fill-rule="evenodd" clip-rule="evenodd" d="M12 10C10.8954 10 10 10.8954 10 12C10 13.1046 10.8954 14 12 14C13.1046 14 14 13.1046 14 12C14 10.8954 13.1046 10 12 10ZM8 12C8 9.79086 9.79086 8 12 8C14.2091 8 16 9.79086 16 12C16 14.2091 14.2091 16 12 16C9.79086 16 8 14.2091 8 12Z" fill="#AB1BC3"/>
<path fill-rule="evenodd" clip-rule="evenodd" d="M12 2C11.7348 2 11.4804 2.10536 11.2929 2.29289C11.1054 2.48043 11 2.73478 11 3V3.17399C10.9979 3.6908 10.8448 4.19572 10.5594 4.62661C10.2741 5.0575 9.86895 5.39555 9.39393 5.59914C9.30938 5.63538 9.22042 5.6597 9.12961 5.67157C8.69798 5.82272 8.23333 5.85998 7.781 5.77796C7.26 5.68349 6.77925 5.43512 6.40073 5.06486L6.39285 5.05715L6.33289 4.99711C6.14515 4.80936 5.89051 4.70389 5.625 4.70389C5.35949 4.70389 5.10485 4.80936 4.91711 4.99711C4.72936 5.18485 4.62389 5.43949 4.62389 5.705C4.62389 5.97051 4.72936 6.22515 4.91711 6.41289L4.98491 6.48069C5.35516 6.85921 5.60349 7.34 5.69796 7.861C5.79055 8.37163 5.73113 8.89797 5.52745 9.37478C5.34189 9.86133 5.01698 10.2827 4.59305 10.5859C4.16054 10.8952 3.64498 11.0673 3.11338 11.0797L3.09 11.08H3C2.73478 11.08 2.48043 11.1854 2.29289 11.3729C2.10536 11.5604 2 11.8148 2 12.08C2 12.3452 2.10536 12.5996 2.29289 12.7871C2.48043 12.9746 2.73478 13.08 3 13.08H3.17399C3.6908 13.0821 4.19572 13.2352 4.62661 13.5206C5.05601 13.8049 5.3932 14.2082 5.59701 14.6811C5.80908 15.1643 5.87211 15.6998 5.77796 16.219C5.68349 16.74 5.43512 17.2207 5.06486 17.5993L5.05715 17.6071L4.99711 17.6671C4.80936 17.8549 4.70389 18.1095 4.70389 18.375C4.70389 18.6405 4.80936 18.8951 4.99711 19.0829C5.18485 19.2706 5.43949 19.3761 5.705 19.3761C5.97051 19.3761 6.22515 19.2706 6.41288 19.0829L6.48069 19.0151C6.85921 18.6448 7.34 18.3965 7.861 18.302C8.37162 18.2095 8.89796 18.2689 9.37477 18.4725C9.86132 18.6581 10.2827 18.983 10.5859 19.407C10.8952 19.8395 11.0673 20.355 11.0797 20.8866L11.08 20.91V21C11.08 21.2652 11.1854 21.5196 11.3729 21.7071C11.5604 21.8946 11.8148 22 12.08 22C12.3452 22 12.5996 21.8946 12.7871 21.7071C12.9746 21.5196 13.08 21.2652 13.08 21V20.83L13.08 20.826C13.0821 20.3092 13.2352 19.8043 13.5206 19.3734C13.805 18.944 14.2083 18.6067 14.6812 18.4029C15.1643 18.1909 15.6998 18.1279 16.219 18.222C16.74 18.3165 17.2207 18.5649 17.5993 18.9351L17.6071 18.9428L17.6671 19.0029C17.8548 19.1906 18.1095 19.2961 18.375 19.2961C18.6405 19.2961 18.8951 19.1906 19.0829 19.0029C19.2706 18.8151 19.3761 18.5605 19.3761 18.295C19.3761 18.0295 19.2706 17.7749 19.0829 17.5871L19.0151 17.5193C18.6448 17.1408 18.3965 16.66 18.302 16.139C18.2079 15.6198 18.2709 15.0843 18.4829 14.6012C18.6867 14.1283 19.024 13.725 19.4534 13.4406C19.8843 13.1552 20.3892 13.0021 20.906 13L20.91 13L21 13C21.2652 13 21.5196 12.8946 21.7071 12.7071C21.8946 12.5196 22 12.2652 22 12C22 11.7348 21.8946 11.4804 21.7071 11.2929C21.5196 11.1054 21.2652 11 21 11H20.83L20.8254 11C19.7683 10.9952 18.8183 10.3636 18.4015 9.39539C18.3649 9.3104 18.3404 9.22094 18.3284 9.12961C18.1773 8.69798 18.14 8.23332 18.222 7.781C18.3165 7.26 18.5649 6.77925 18.9351 6.40073L18.9428 6.39285L19.0029 6.33289C19.1906 6.14515 19.2961 5.89051 19.2961 5.625C19.2961 5.35949 19.1906 5.10485 19.0029 4.91711C18.8151 4.72936 18.5605 4.62389 18.295 4.62389C18.0295 4.62389 17.7749 4.72936 17.5871 4.91711L17.5193 4.98491C17.1408 5.35516 16.66 5.60349 16.139 5.69796C15.6198 5.79211 15.0843 5.72908 14.6011 5.51701C14.1282 5.3132 13.7249 4.97601 13.4406 4.54661C13.1552 4.11572 13.0021 3.6108 13 3.09399L13 3.09V3C13 2.73478 12.8946 2.48043 12.7071 2.29289C12.5196 2.10536 12.2652 2 12 2ZM9.87868 0.87868C10.4413 0.316071 11.2044 0 12 0C12.7956 0 13.5587 0.316071 14.1213 0.87868C14.6839 1.44129 15 2.20435 15 3V3.0875C15.0008 3.21374 15.0383 3.33704 15.1081 3.44232C15.178 3.54801 15.2774 3.63092 15.3939 3.68086L15.4038 3.68508C15.5226 3.73752 15.6544 3.75322 15.7822 3.73005C15.9086 3.70713 16.0253 3.64728 16.1177 3.55811L16.1729 3.50289C16.7357 2.94008 17.4991 2.62389 18.295 2.62389C19.0909 2.62389 19.8543 2.94008 20.4171 3.50289C20.9799 4.06571 21.2961 4.82905 21.2961 5.625C21.2961 6.42095 20.9799 7.18429 20.4171 7.74711L20.3619 7.80231C20.2727 7.89468 20.2129 8.01142 20.19 8.13782C20.1668 8.26561 20.1824 8.39742 20.2349 8.51624C20.263 8.58002 20.2843 8.6464 20.2986 8.71427C20.418 8.89 20.6166 8.99843 20.8328 9H21C21.7957 9 22.5587 9.31607 23.1213 9.87868C23.6839 10.4413 24 11.2043 24 12C24 12.7957 23.6839 13.5587 23.1213 14.1213C22.5587 14.6839 21.7957 15 21 15H20.9125C20.7863 15.0008 20.663 15.0383 20.5577 15.1081C20.452 15.178 20.3691 15.2774 20.3191 15.3939L20.3149 15.4038C20.2625 15.5226 20.2468 15.6544 20.27 15.7822C20.2929 15.9086 20.3527 16.0253 20.4419 16.1177L20.4971 16.1729C21.0599 16.7357 21.3761 17.4991 21.3761 18.295C21.3761 19.0909 21.0599 19.8543 20.4971 20.4171C19.9343 20.9799 19.1709 21.2961 18.375 21.2961C17.5791 21.2961 16.8157 20.9799 16.2529 20.4171L16.1977 20.3619C16.1053 20.2727 15.9886 20.2129 15.8622 20.19C15.7344 20.1668 15.6026 20.1824 15.4838 20.2349L15.474 20.2392C15.3574 20.2891 15.258 20.372 15.1881 20.4777C15.1183 20.583 15.0808 20.7063 15.08 20.8325V21C15.08 21.7957 14.7639 22.5587 14.2013 23.1213C13.6387 23.6839 12.8757 24 12.08 24C11.2843 24 10.5213 23.6839 9.95868 23.1213C9.39607 22.5587 9.08 21.7957 9.08 21V20.9244C9.07526 20.7972 9.03327 20.6741 8.95914 20.5704C8.88326 20.4644 8.77723 20.3836 8.65482 20.3385C8.63505 20.3313 8.61551 20.3234 8.59624 20.3149C8.47742 20.2624 8.34561 20.2468 8.21782 20.27C8.09142 20.2929 7.97467 20.3527 7.8823 20.4419L7.82712 20.4971C7.2643 21.0599 6.50094 21.3761 5.705 21.3761C4.90906 21.3761 4.14571 21.0599 3.58289 20.4971C3.02008 19.9343 2.70389 19.1709 2.70389 18.375C2.70389 17.5791 3.02008 16.8157 3.58289 16.2529L3.63811 16.1977C3.72728 16.1053 3.78713 15.9886 3.81005 15.8622C3.83322 15.7344 3.81758 15.6026 3.76514 15.4838L3.76081 15.474C3.71087 15.3574 3.62801 15.258 3.52232 15.1881C3.41704 15.1183 3.29374 15.0808 3.1675 15.08H3C2.20435 15.08 1.44129 14.7639 0.87868 14.2013C0.316071 13.6387 0 12.8756 0 12.08C0 11.2844 0.316071 10.5213 0.87868 9.95868C1.44129 9.39607 2.20435 9.08 3 9.08H3.07564C3.20283 9.07526 3.32591 9.03327 3.42955 8.95914C3.53564 8.88326 3.61644 8.77723 3.66146 8.65482C3.66874 8.63505 3.67663 8.61551 3.68514 8.59624C3.73758 8.47742 3.75322 8.34561 3.73005 8.21782C3.70713 8.09142 3.64728 7.97468 3.5581 7.88231L3.50289 7.82711C2.94008 7.26429 2.62389 6.50094 2.62389 5.705C2.62389 4.90906 2.94008 4.14571 3.50289 3.58289C4.06571 3.02008 4.82906 2.70389 5.625 2.70389C6.42094 2.70389 7.18429 3.02008 7.74711 3.58289L7.80231 3.6381C7.89468 3.72728 8.01142 3.78713 8.13782 3.81005C8.26561 3.83322 8.39742 3.81758 8.51624 3.76514C8.58027 3.73687 8.64693 3.71549 8.71507 3.70122C8.78479 3.6539 8.84498 3.59323 8.89195 3.52232C8.96167 3.41704 8.99921 3.29374 9 3.1675V3C9 2.20435 9.31607 1.44129 9.87868 0.87868Z" fill="#AB1BC3"/>
</svg>
