<svg width="22" height="21" viewBox="0 0 22 21" fill="none" xmlns="http://www.w3.org/2000/svg">
<path fill-rule="evenodd" clip-rule="evenodd" d="M12.5442 12.8396C16.3925 13.25 22 15.0688 22 18.25V21H0V18.25C0 15.0688 5.60749 13.25 9.45582 12.8396C10.0153 12.7799 10.5375 12.75 11 12.75C11.4625 12.75 11.9847 12.7799 12.5442 12.8396ZM12.4061 10.8167C11.9569 10.9362 11.4855 11 11 11C10.5145 11 10.0431 10.9362 9.5939 10.8167C7.24411 10.1914 5.5 8.03946 5.5 5.5C5.5 2.47506 7.97471 0 11 0C14.0253 0 16.5 2.47506 16.5 5.5C16.5 8.03946 14.7559 10.1914 12.4061 10.8167ZM2 19V18.25C2 18.0785 2.07108 17.7753 2.56 17.3258C3.06129 16.8649 3.8514 16.4014 4.87762 15.9901C6.9337 15.1661 9.43102 14.75 11 14.75C12.569 14.75 15.0663 15.1661 17.1224 15.9901C18.1486 16.4014 18.9387 16.8649 19.44 17.3258C19.9289 17.7753 20 18.0785 20 18.25V19H2ZM11 9C9.07936 9 7.5 7.42045 7.5 5.5C7.5 3.57955 9.07936 2 11 2C12.9206 2 14.5 3.57955 14.5 5.5C14.5 7.42045 12.9206 9 11 9Z" fill="#AB1BC3"/>
</svg>
